<svg width="500" height="30" viewBox="0 0 500 40" fill="none" xmlns="http://www.w3.org/2000/svg">
<rect x="1" y="1" width="400" height="38" fill="white"/>
<path d="M20.352 25.192C19.616 25.192 18.9333 25.0533 18.304 24.776C17.6747 24.4987 17.1307 24.12 16.672 23.64L17.472 22.712C17.8453 23.1067 18.2827 23.4267 18.784 23.672C19.296 23.9067 19.824 24.024 20.368 24.024C21.0613 24.024 21.6 23.8693 21.984 23.56C22.368 23.24 22.56 22.824 22.56 22.312C22.56 22.0453 22.512 21.8213 22.416 21.64C22.3307 21.448 22.208 21.288 22.048 21.16C21.8987 21.0213 21.7173 20.8987 21.504 20.792C21.2907 20.6853 21.0613 20.5733 20.816 20.456L19.312 19.8C19.0667 19.6933 18.816 19.5653 18.56 19.416C18.304 19.2667 18.0747 19.0853 17.872 18.872C17.6693 18.6587 17.504 18.408 17.376 18.12C17.248 17.8213 17.184 17.48 17.184 17.096C17.184 16.7013 17.264 16.3333 17.424 15.992C17.5947 15.6507 17.824 15.3573 18.112 15.112C18.4107 14.856 18.7573 14.6587 19.152 14.52C19.5573 14.3813 20 14.312 20.48 14.312C21.1093 14.312 21.6907 14.4347 22.224 14.68C22.7573 14.9147 23.2107 15.224 23.584 15.608L22.864 16.472C22.544 16.1627 22.1867 15.9227 21.792 15.752C21.408 15.5707 20.9707 15.48 20.48 15.48C19.8933 15.48 19.4187 15.6187 19.056 15.896C18.704 16.1627 18.528 16.536 18.528 17.016C18.528 17.272 18.576 17.4907 18.672 17.672C18.7787 17.8427 18.9173 17.9973 19.088 18.136C19.2587 18.264 19.4453 18.3813 19.648 18.488C19.8507 18.584 20.0587 18.6747 20.272 18.76L21.76 19.4C22.0587 19.528 22.3413 19.6773 22.608 19.848C22.8747 20.008 23.104 20.2 23.296 20.424C23.488 20.6373 23.6373 20.8933 23.744 21.192C23.8613 21.48 23.92 21.816 23.92 22.2C23.92 22.616 23.8347 23.0053 23.664 23.368C23.504 23.7307 23.2693 24.0507 22.96 24.328C22.6507 24.5947 22.2773 24.808 21.84 24.968C21.4027 25.1173 20.9067 25.192 20.352 25.192ZM29.0109 25.192C28.4882 25.192 27.9975 25.1013 27.5389 24.92C27.0909 24.728 26.6962 24.4613 26.3549 24.12C26.0242 23.768 25.7629 23.3413 25.5709 22.84C25.3789 22.3387 25.2829 21.768 25.2829 21.128C25.2829 20.488 25.3789 19.9173 25.5709 19.416C25.7735 18.904 26.0349 18.472 26.3549 18.12C26.6855 17.768 27.0589 17.5013 27.4749 17.32C27.8909 17.128 28.3229 17.032 28.7709 17.032C29.2615 17.032 29.6989 17.1173 30.0829 17.288C30.4775 17.4587 30.8029 17.704 31.0589 18.024C31.3255 18.344 31.5282 18.728 31.6669 19.176C31.8055 19.624 31.8749 20.1253 31.8749 20.68C31.8749 20.8187 31.8695 20.9573 31.8589 21.096C31.8589 21.224 31.8482 21.336 31.8269 21.432H26.5789C26.6322 22.264 26.8882 22.9253 27.3469 23.416C27.8162 23.896 28.4242 24.136 29.1709 24.136C29.5442 24.136 29.8855 24.0827 30.1949 23.976C30.5149 23.8587 30.8189 23.7093 31.1069 23.528L31.5709 24.392C31.2295 24.6053 30.8509 24.792 30.4349 24.952C30.0189 25.112 29.5442 25.192 29.0109 25.192ZM26.5629 20.488H30.7229C30.7229 19.6987 30.5522 19.1013 30.2109 18.696C29.8802 18.28 29.4109 18.072 28.8029 18.072C28.5255 18.072 28.2589 18.1253 28.0029 18.232C27.7575 18.3387 27.5335 18.4987 27.3309 18.712C27.1282 18.9147 26.9575 19.1653 26.8189 19.464C26.6909 19.7627 26.6055 20.104 26.5629 20.488ZM35.3696 25.192C34.719 25.192 34.175 25 33.7376 24.616C33.311 24.232 33.0976 23.688 33.0976 22.984C33.0976 22.1307 33.4763 21.48 34.2336 21.032C34.991 20.5733 36.2016 20.2533 37.8656 20.072C37.8656 19.8267 37.839 19.5867 37.7856 19.352C37.743 19.1173 37.663 18.9093 37.5456 18.728C37.4283 18.5467 37.263 18.4027 37.0496 18.296C36.847 18.1787 36.5856 18.12 36.2656 18.12C35.8176 18.12 35.3963 18.2053 35.0016 18.376C34.607 18.5467 34.255 18.7387 33.9456 18.952L33.4336 18.04C33.7963 17.8053 34.239 17.5813 34.7616 17.368C35.2843 17.144 35.8603 17.032 36.4896 17.032C37.439 17.032 38.127 17.3253 38.5536 17.912C38.9803 18.488 39.1936 19.2613 39.1936 20.232V25H38.1056L37.9936 24.072H37.9456C37.5723 24.3813 37.1723 24.648 36.7456 24.872C36.319 25.0853 35.8603 25.192 35.3696 25.192ZM35.7536 24.136C36.127 24.136 36.479 24.0507 36.8096 23.88C37.1403 23.6987 37.4923 23.4373 37.8656 23.096V20.936C37.215 21.0213 36.6656 21.1227 36.2176 21.24C35.7803 21.3573 35.423 21.496 35.1456 21.656C34.879 21.816 34.6816 22.0027 34.5536 22.216C34.4363 22.4187 34.3776 22.6427 34.3776 22.888C34.3776 23.336 34.511 23.656 34.7776 23.848C35.0443 24.04 35.3696 24.136 35.7536 24.136ZM41.6401 25V17.224H42.7281L42.8401 18.632H42.8881C43.1548 18.1413 43.4748 17.752 43.8481 17.464C44.2321 17.176 44.6481 17.032 45.0961 17.032C45.4055 17.032 45.6828 17.0853 45.9281 17.192L45.6721 18.344C45.5441 18.3013 45.4268 18.2693 45.3201 18.248C45.2135 18.2267 45.0801 18.216 44.9201 18.216C44.5895 18.216 44.2428 18.3493 43.8801 18.616C43.5281 18.8827 43.2188 19.3467 42.9521 20.008V25H41.6401ZM50.1028 25.192C49.5908 25.192 49.1108 25.1013 48.6628 24.92C48.2148 24.7387 47.8254 24.4773 47.4948 24.136C47.1748 23.784 46.9188 23.3573 46.7268 22.856C46.5454 22.344 46.4548 21.768 46.4548 21.128C46.4548 20.4773 46.5561 19.9013 46.7588 19.4C46.9614 18.888 47.2334 18.456 47.5748 18.104C47.9161 17.752 48.3108 17.4853 48.7588 17.304C49.2174 17.1227 49.6974 17.032 50.1988 17.032C50.7108 17.032 51.1481 17.1227 51.5108 17.304C51.8734 17.4853 52.1934 17.6987 52.4708 17.944L51.7988 18.808C51.5748 18.6053 51.3348 18.44 51.0788 18.312C50.8334 18.184 50.5561 18.12 50.2468 18.12C49.8948 18.12 49.5694 18.1947 49.2708 18.344C48.9721 18.4827 48.7161 18.6853 48.5028 18.952C48.2894 19.2187 48.1188 19.5387 47.9908 19.912C47.8734 20.2747 47.8148 20.68 47.8148 21.128C47.8148 21.576 47.8734 21.9813 47.9908 22.344C48.1081 22.7067 48.2681 23.0213 48.4708 23.288C48.6841 23.544 48.9401 23.7467 49.2388 23.896C49.5374 24.0347 49.8628 24.104 50.2148 24.104C50.5774 24.104 50.9081 24.0293 51.2068 23.88C51.5161 23.72 51.7934 23.5333 52.0388 23.32L52.6148 24.2C52.2628 24.5093 51.8734 24.7547 51.4468 24.936C51.0201 25.1067 50.5721 25.192 50.1028 25.192ZM54.3276 25V13.608H55.6396V16.712L55.5916 18.312C55.965 17.96 56.3543 17.6613 56.7596 17.416C57.165 17.16 57.6396 17.032 58.1836 17.032C59.005 17.032 59.6023 17.288 59.9756 17.8C60.3596 18.312 60.5516 19.0693 60.5516 20.072V25H59.2396V20.248C59.2396 19.512 59.1223 18.984 58.8876 18.664C58.653 18.3333 58.2796 18.168 57.7676 18.168C57.3623 18.168 57.005 18.2693 56.6956 18.472C56.3863 18.6747 56.0343 18.9733 55.6396 19.368V25H54.3276Z" fill="#7B7B7B"/>
<path d="M476.348 21.963C475.651 22.5982 474.815 23.0906 473.88 23.3427C472.27 23.7772 470.375 23.4018 469.266 22.2305C468.707 21.6393 468.369 20.8874 468.193 20.1167C468.017 19.346 467.994 18.5523 468.001 17.7644C468.01 16.902 468.06 16.0173 468.428 15.2259C468.731 14.5755 469.235 14.0215 469.798 13.5444C470.124 13.2688 470.48 13.0109 470.896 12.8792C471.169 12.7929 471.459 12.7638 471.746 12.7531C473.918 12.6725 476.073 13.6652 477.434 15.2418C477.702 15.5524 477.943 15.8862 478.116 16.251C478.739 17.5706 478.382 19.1385 477.627 20.397C477.283 20.9692 476.852 21.5035 476.348 21.963ZM476.348 21.963L480 26.7485" stroke="black" stroke-width="2" stroke-linecap="round" stroke-linejoin="round"/>
<rect x="1" y="1" width="498" height="38" stroke="black" stroke-width="2"/>
</svg>
